<svg id="Слой_1" data-name="Слой 1" xmlns="http://www.w3.org/2000/svg" width="70" height="50"><defs><style>.cls-1{fill:#00703c}.cls-2{fill:#fff}</style></defs><rect class="cls-1" width="60" height="40" rx="6" ry="6"/><rect class="cls-2" x="1" y="1" width="58" height="38" rx="5" ry="5"/><path class="cls-1" d="M1 10h58v1H1zm0 6h58v1H1zm5 6h10v1H6zm0 5h5v1H6zm15-5h5v1h-5z"/><path class="cls-1" d="M647 417c-4.42 0-8 1.12-8 2.5v4c0 1.38 3.58 2.5 8 2.5s8-1.12 8-2.5v-4c0-1.38-3.58-2.5-8-2.5z" transform="translate(-600 -376)"/><path class="cls-2" d="M647 425c-4.43 0-6.81-1.12-7-1.56v-3.94c.19-.38 2.57-1.5 7-1.5s6.81 1.12 7 1.56v3.94c-.19.38-2.57 1.5-7 1.5z" transform="translate(-600 -376)"/><ellipse class="cls-1" cx="47" cy="43.5" rx="8" ry="2.5"/><path class="cls-2" d="M647 421c-4.25 0-6.61-1-7-1.5.37-.48 2.73-1.5 7-1.5s6.61 1 7 1.5c-.39.5-2.75 1.5-7 1.5z" transform="translate(-600 -376)"/><path class="cls-1" d="M647 413c-4.42 0-8 1.12-8 2.5v4c0 1.38 3.58 2.5 8 2.5s8-1.12 8-2.5v-4c0-1.38-3.58-2.5-8-2.5z" transform="translate(-600 -376)"/><path class="cls-2" d="M647 421c-4.43 0-6.81-1.12-7-1.56v-3.94c.19-.38 2.57-1.5 7-1.5s6.81 1.12 7 1.56v3.94c-.19.38-2.57 1.5-7 1.5z" transform="translate(-600 -376)"/><ellipse class="cls-1" cx="47" cy="39.5" rx="8" ry="2.5"/><path class="cls-2" d="M647 417c-4.25 0-6.61-1-7-1.5.37-.48 2.73-1.5 7-1.5s6.61 1 7 1.5c-.39.5-2.75 1.5-7 1.5z" transform="translate(-600 -376)"/><path class="cls-1" d="M647 409c-4.42 0-8 1.12-8 2.5v4c0 1.38 3.58 2.5 8 2.5s8-1.12 8-2.5v-4c0-1.38-3.58-2.5-8-2.5z" transform="translate(-600 -376)"/><path class="cls-2" d="M647 417c-4.43 0-6.81-1.12-7-1.56v-3.94c.19-.38 2.57-1.5 7-1.5s6.81 1.12 7 1.56v3.94c-.19.38-2.57 1.5-7 1.5z" transform="translate(-600 -376)"/><ellipse class="cls-1" cx="47" cy="35.5" rx="8" ry="2.5"/><path class="cls-2" d="M647 413c-4.25 0-6.61-1-7-1.5.37-.48 2.73-1.5 7-1.5s6.61 1 7 1.5c-.39.5-2.75 1.5-7 1.5z" transform="translate(-600 -376)"/><path class="cls-1" d="M662 417c-4.42 0-8 1.12-8 2.5v4c0 1.38 3.58 2.5 8 2.5s8-1.12 8-2.5v-4c0-1.38-3.58-2.5-8-2.5z" transform="translate(-600 -376)"/><path class="cls-2" d="M662 425c-4.43 0-6.81-1.12-7-1.56v-3.94c.19-.38 2.57-1.5 7-1.5s6.81 1.12 7 1.56v3.94c-.19.38-2.57 1.5-7 1.5z" transform="translate(-600 -376)"/><ellipse class="cls-1" cx="62" cy="43.5" rx="8" ry="2.5"/><path class="cls-2" d="M662 421c-4.25 0-6.61-1-7-1.5.37-.48 2.73-1.5 7-1.5s6.61 1 7 1.5c-.39.5-2.75 1.5-7 1.5z" transform="translate(-600 -376)"/><path class="cls-1" d="M662 413c-4.42 0-8 1.12-8 2.5v4c0 1.38 3.58 2.5 8 2.5s8-1.12 8-2.5v-4c0-1.38-3.58-2.5-8-2.5z" transform="translate(-600 -376)"/><path class="cls-2" d="M662 421c-4.43 0-6.81-1.12-7-1.56v-3.94c.19-.38 2.57-1.5 7-1.5s6.81 1.12 7 1.56v3.94c-.19.38-2.57 1.5-7 1.5z" transform="translate(-600 -376)"/><ellipse class="cls-1" cx="62" cy="39.5" rx="8" ry="2.5"/><path class="cls-2" d="M662 417c-4.25 0-6.61-1-7-1.5.37-.48 2.73-1.5 7-1.5s6.61 1 7 1.5c-.39.5-2.75 1.5-7 1.5z" transform="translate(-600 -376)"/><path class="cls-1" d="M662 409c-4.42 0-8 1.12-8 2.5v4c0 1.38 3.58 2.5 8 2.5s8-1.12 8-2.5v-4c0-1.38-3.58-2.5-8-2.5z" transform="translate(-600 -376)"/><path class="cls-2" d="M662 417c-4.43 0-6.81-1.12-7-1.56v-3.94c.19-.38 2.57-1.5 7-1.5s6.81 1.12 7 1.56v3.94c-.19.38-2.57 1.5-7 1.5z" transform="translate(-600 -376)"/><ellipse class="cls-1" cx="62" cy="35.5" rx="8" ry="2.5"/><path class="cls-2" d="M662 413c-4.25 0-6.61-1-7-1.5.37-.48 2.73-1.5 7-1.5s6.61 1 7 1.5c-.39.5-2.75 1.5-7 1.5z" transform="translate(-600 -376)"/><path class="cls-1" d="M662 405c-4.42 0-8 1.12-8 2.5v4c0 1.38 3.58 2.5 8 2.5s8-1.12 8-2.5v-4c0-1.38-3.58-2.5-8-2.5z" transform="translate(-600 -376)"/><path class="cls-2" d="M662 413c-4.43 0-6.81-1.12-7-1.56v-3.94c.19-.38 2.57-1.5 7-1.5s6.81 1.12 7 1.56v3.94c-.19.38-2.57 1.5-7 1.5z" transform="translate(-600 -376)"/><ellipse class="cls-1" cx="62" cy="31.5" rx="8" ry="2.5"/><path class="cls-2" d="M662 409c-4.25 0-6.61-1-7-1.5.37-.48 2.73-1.5 7-1.5s6.61 1 7 1.5c-.39.5-2.75 1.5-7 1.5z" transform="translate(-600 -376)"/><path class="cls-1" d="M662 401c-4.42 0-8 1.12-8 2.5v4c0 1.38 3.58 2.5 8 2.5s8-1.12 8-2.5v-4c0-1.38-3.58-2.5-8-2.5z" transform="translate(-600 -376)"/><path class="cls-2" d="M662 409c-4.43 0-6.81-1.12-7-1.56v-3.94c.19-.38 2.57-1.5 7-1.5s6.81 1.12 7 1.56v3.94c-.19.38-2.57 1.5-7 1.5z" transform="translate(-600 -376)"/><ellipse class="cls-1" cx="62" cy="27.5" rx="8" ry="2.5"/><path class="cls-2" d="M662 405c-4.25 0-6.61-1-7-1.5.37-.48 2.73-1.5 7-1.5s6.61 1 7 1.5c-.39.5-2.75 1.5-7 1.5z" transform="translate(-600 -376)"/><path class="cls-1" d="M662 397c-4.42 0-8 1.12-8 2.5v4c0 1.38 3.58 2.5 8 2.5s8-1.12 8-2.5v-4c0-1.38-3.58-2.5-8-2.5z" transform="translate(-600 -376)"/><path class="cls-2" d="M662 405c-4.43 0-6.81-1.12-7-1.56v-3.94c.19-.38 2.57-1.5 7-1.5s6.81 1.12 7 1.56v3.94c-.19.38-2.57 1.5-7 1.5z" transform="translate(-600 -376)"/><ellipse class="cls-1" cx="62" cy="23.5" rx="8" ry="2.5"/><path class="cls-2" d="M662 401c-4.25 0-6.61-1-7-1.5.37-.48 2.73-1.5 7-1.5s6.61 1 7 1.5c-.39.5-2.75 1.5-7 1.5z" transform="translate(-600 -376)"/></svg>