<svg xmlns="http://www.w3.org/2000/svg" width="70" height="70"><path d="M4.4 66.1c-.1 0-.3 0-.4-.1-.2-.2-.2-.5 0-.7L65.3 4c.2-.2.5-.2.7 0s.2.5 0 .7L4.7 66c-.1.1-.2.1-.3.1zM10.9 1c5.5 0 9.9 4.5 9.9 9.9s-4.5 9.9-9.9 9.9S1 16.4 1 10.9C1 5.5 5.5 1 10.9 1m0-1C4.9 0 0 4.9 0 10.9s4.9 10.9 10.9 10.9 11-4.8 11-10.9S17 0 10.9 0zm48.2 49.1c5.5 0 9.9 4.5 9.9 9.9s-4.5 10-9.9 10-9.9-4.5-9.9-9.9c-.1-5.5 4.4-10 9.9-10m0-1c-6 0-10.9 4.9-10.9 10.9S53 70 59.1 70 70 65.1 70 59.1c0-6.1-4.9-11-10.9-11z" fill="#00703c"/></svg>