<svg id="Layer_1" xmlns="http://www.w3.org/2000/svg" width="70" height="70"><style>.st0{fill:#00703c}.st1{fill:#fff}</style><path class="st0" d="M3.5 0h28c2 .1 3.6 1.7 3.5 3.8v17.4c.1 2-1.5 3.7-3.5 3.8h-28c-2-.1-3.6-1.7-3.5-3.8V3.8C-.1 1.7 1.5.1 3.5 0z"/><path class="st1" d="M3.5 23.9C2.1 23.8.9 22.6 1 21.1V3.8C.9 2.3 2.1 1.1 3.5 1h28c1.4.1 2.6 1.3 2.5 2.8v17.4c.1 1.4-1.1 2.7-2.5 2.8l-28-.1z"/><path class="st0" d="M1 6h33v1H1zm0 3h33v1H1zm3 4h8v1H4zm0 4h3v1H4zm11-4h3v1h-3zm23.5 32h28c2 .1 3.6 1.7 3.5 3.8v17.4c.1 2-1.5 3.7-3.5 3.8h-28c-2-.1-3.6-1.7-3.5-3.8V48.8c-.1-2.1 1.5-3.7 3.5-3.8z"/><path class="st1" d="M38.5 68.9c-1.4-.1-2.6-1.3-2.5-2.8V48.8c-.1-1.4 1.1-2.7 2.5-2.8h28c1.4.1 2.6 1.3 2.5 2.8v17.4c.1 1.4-1.1 2.7-2.5 2.8l-28-.1z"/><path class="st0" d="M36 51h33v1H36zm0 3h33v1H36zm3 4h8v1h-8zm0 4h3v1h-3zm11-4h3v1h-3zm-8.5-46H40v1h1.5C50 13 57 20 57 28.5V40h1V28.5C58 19.4 50.6 12 41.5 12z"/><path class="st0" d="M57.5 40.2l-3.9-3.8.8-.8 3.1 3.2 3.1-3.2.8.8z"/></svg>