<svg id="Layer_1" data-name="Layer 1" xmlns="http://www.w3.org/2000/svg" width="180" height="58.72"><defs><style>.cls-2{fill-rule:evenodd;fill:#0d703f}</style><linearGradient id="linear-gradient" x1="562.2" y1="407.69" x2="608.64" y2="407.69" gradientTransform="translate(-.08 .05)" gradientUnits="userSpaceOnUse"><stop offset="0" stop-color="#0b7440"/><stop offset="1" stop-color="#8fc43f"/></linearGradient><linearGradient id="linear-gradient-2" x1="606.25" y1="407.69" x2="595.42" y2="407.69" gradientTransform="translate(-.08 .05)" gradientUnits="userSpaceOnUse"><stop offset="0" stop-color="#fff"/><stop offset="1" stop-color="#fff" stop-opacity="0"/></linearGradient></defs><path d="M574.9 389.85a26.38 26.38 0 0 0-11.5 2.49 1.72 1.72 0 0 1-.87.19.52.52 0 0 1-.51-.69 1.27 1.27 0 0 1 .3-.53 26 26 0 0 1 9.89-7.28 25.55 25.55 0 0 1 7.34-1.89 26.11 26.11 0 0 1 14 2.36 25.72 25.72 0 0 1 7.93 5.78 25.43 25.43 0 0 1 5.44 8.92 25.93 25.93 0 0 1 1.48 7.54 25.8 25.8 0 0 1-8 19.9 25.84 25.84 0 0 1-7.83 5.12 26.21 26.21 0 0 1-8.05 2 20.45 20.45 0 0 1-9.34-1.24 19.72 19.72 0 0 1-11-10.28 19.5 19.5 0 0 1-1.76-6.91 14.72 14.72 0 0 1 9.83-15.23 14.24 14.24 0 0 1 5-.83 10.4 10.4 0 0 1 10.37 9.4 6.87 6.87 0 0 1-1.4 5.22 6.64 6.64 0 0 1-6.42 2.61 4 4 0 0 1-2.37-1.34 1.31 1.31 0 0 1-.17-.23.57.57 0 0 1 .47-1c.25 0 .5 0 .75-.08a2.62 2.62 0 0 0 2.16-2.93 4.32 4.32 0 0 0-3.65-3.79 6.1 6.1 0 0 0-4.05.86 6.63 6.63 0 0 0-3.47 6.26 10 10 0 0 0 4.62 8.26 10.24 10.24 0 0 0 6.64 1.72 14.55 14.55 0 0 0 9.1-3.89 14.22 14.22 0 0 0 4.58-8.68 17.54 17.54 0 0 0-.47-6.93 19.5 19.5 0 0 0-4.72-8.56 19.75 19.75 0 0 0-11.47-6.09 16.42 16.42 0 0 0-2.85-.23z" transform="translate(-562 -382)" fill="url(#linear-gradient)" fill-rule="evenodd"/><path class="cls-2" d="M690.66 401.3c4 0 8 .32 12 .32.27 0 .58-.37.71 0s-.15.32-.33.5c-1.06 1.06-2.13 2-3.19 3.11a.91.91 0 0 1-.73.26h-12.91c-.54 0-.54 0-.54.52v4c0 .56 0 .56.54.56h13.63a7.25 7.25 0 0 1 5.44 2.25 7.16 7.16 0 0 1 2 5.79 7.38 7.38 0 0 1-6.13 6.6 7.26 7.26 0 0 1-1.18.11h-16.1a6.06 6.06 0 0 1-6-6v-17.53c0-.62.08-.54.71-.54 4-.11 8.04.04 12.08.05zm.81 13.62h-5.3a.38.38 0 0 0-.47.48v3.71a1.66 1.66 0 0 0 1.73 1.72h9.08a3 3 0 1 0 0-5.9h-5.08zM673.77 425c-.77 0-1.54.11-2.31.14a6.5 6.5 0 0 1-5.48-2.47c-1.34-1.57-2.75-3.05-4.13-4.59-.34-.38-.68-.73-1-1.12-.15-.18-.26-.19-.43 0l-4.22 4.54-3.31 3.5a.67.67 0 0 1-.55.19h-6.42a.5.5 0 0 1-.58-.25.52.52 0 0 1 .24-.59l11.12-11.11c.39-.39.38-.38 0-.77l-8.62-9-1.46-1.5a3.06 3.06 0 0 1-.38-.44.38.38 0 0 1 .28-.62 1.59 1.59 0 0 1 .29 0h5.66a6.12 6.12 0 0 1 4.71 2.13c1.41 1.6 2.85 3.19 4.26 4.79.18.2.29.17.46 0l6.18-6.7a.6.6 0 0 1 .47-.21h6.56a.44.44 0 0 1 .31.82l-9.83 9.81c-.41.41-.42.32 0 .74l7.52 7.82 4.12 4.29c.15.16.25.2.16.42s-.28.1-.48.1h-3.14z" transform="translate(-562 -382)"/><path class="cls-2" d="M630.26 401h12.44a1 1 0 0 1 .79.32c1.08 1.1 2.18 2.17 3.27 3.26a.53.53 0 0 1 .23.6.51.51 0 0 1-.58.25h-10.5c-.54 0-.54 0-.54.53v18.93a.37.37 0 0 1-.38.37 7.27 7.27 0 0 1-5-1.12 5.78 5.78 0 0 1-2.54-4.81v-13.37c0-.52 0-.52-.51-.52h-9.23c-.62 0-.7-.08-.71-.71v-3c0-.61.1-.72.71-.72h12.51zm81.41 38.07l.63-1.48c.4-.94.8-1.88 1.19-2.82a.44.44 0 0 1 .48-.33h.86a.26.26 0 0 1 .3.3v5.41a.28.28 0 0 1-.33.32c-.78 0-.78 0-.78-.73v-3.35a.63.63 0 0 0-.02-.39l-.91 2.13c-.28.66-.58 1.32-.83 2a.51.51 0 0 1-.59.34.52.52 0 0 1-.59-.33c-.57-1.39-1.16-2.77-1.79-4.23v4.19a.31.31 0 0 1-.39.38c-.81 0-.73.07-.73-.75v-4.83a.37.37 0 0 1 .44-.46c1.08 0 1.08 0 1.49 1l1.43 3.39a.35.35 0 0 0 .14.24zm5.65-3.51a2.77 2.77 0 0 1 5 .68 3.85 3.85 0 0 1-.29 3.17 2.53 2.53 0 0 1-2.21 1.28 4.84 4.84 0 0 1-.93 0 2.59 2.59 0 0 1-2.18-2 7.79 7.79 0 0 1 0-4.27 2.55 2.55 0 0 1 2-1.92c.58-.13 1.16-.19 1.74-.27a.52.52 0 0 0 .36-.13.93.93 0 0 1 .89-.24c.21 0 .26.12.23.31a1.24 1.24 0 0 1-1 1 8.68 8.68 0 0 1-1.6.26 2.18 2.18 0 0 0-2.01 2.13zm2.12 4.31a1.66 1.66 0 0 0 1.74-1.36 3.83 3.83 0 0 0-.11-2.24 1.57 1.57 0 0 0-1.63-1.16 1.63 1.63 0 0 0-1.65 1.21 3.84 3.84 0 0 0-.12 2.06 1.69 1.69 0 0 0 1.77 1.5zm9.1-2.26v1.57a.4.4 0 0 0 .35.48c.37.07.21.37.23.58a.26.26 0 0 1-.32.29 1 1 0 0 1-1.21-.54c-.07-.18-.14-.09-.23 0a2.79 2.79 0 0 1-3 .54 1.53 1.53 0 0 1-1.07-1.55 1.49 1.49 0 0 1 .93-1.59 6.89 6.89 0 0 1 2.32-.48.78.78 0 0 0 .84-.42 1.2 1.2 0 0 0-.39-1.24 2 2 0 0 0-2 .09.87.87 0 0 0-.32.59.35.35 0 0 1-.43.35c-.73 0-.8-.09-.56-.78a1.94 1.94 0 0 1 1.61-1.23 4.09 4.09 0 0 1 1.89 0 1.73 1.73 0 0 1 1.38 1.79v1.5zm-2.89 2.27a1.57 1.57 0 0 0 1.63-1.21 4.83 4.83 0 0 0 .14-.7c.06-.4 0-.43-.38-.34h-.32a7.47 7.47 0 0 0-1.59.29.85.85 0 0 0-.62.83 1 1 0 0 0 1.14 1.13zm-36.11-.93l1-1.48c.58-.87 1.16-1.74 1.72-2.62a.78.78 0 0 1 .79-.42c.8 0 .74-.17.74.75v4.83c0 .47 0 .52-.49.52h-.18c-.47 0-.71 0-.71-.52 0-1.19-.22-2.41-.22-3.6V436c-.49.1 0 .23-.09.35-.82 1.26-1.54 2.51-2.35 3.77a.64.64 0 0 1-.65.38c-.9 0-.77.09-.77-.82v-4.72c0-.48 0-.49.48-.49.73 0 .64-.11.64.62v3.46a.62.62 0 0 0 .09.4zm12.75-.02l.56-.84c.67-1 1.37-2 2-3.08a1 1 0 0 1 1.07-.58c.55 0 .55 0 .55.56v5c0 .37-.12.51-.48.46h-.19a.56.56 0 0 1-.71-.43c0-1.23-.26-2.45-.26-3.68V436h.2c-.49.75-.85 1.49-1.34 2.24s-.82 1.34-1.25 2a.47.47 0 0 1-.48.25c-1 0-.87.12-.87-.87v-4.69c0-.35.09-.5.47-.48.69 0 .66-.13.66.66v3.42a.58.58 0 0 0 .07.4zm-26.54-1.48v2.56a.36.36 0 0 1-.42.45c-.74 0-.74 0-.74-.74v-1.26a.27.27 0 0 0-.32-.33h-.07a1.16 1.16 0 0 0-1.39.72c-.21.44-.56.81-.81 1.23a.64.64 0 0 1-.7.37.41.41 0 1 1-.34-.69q.49-.71 1-1.41c.12-.17.12-.24-.1-.32a1.85 1.85 0 0 1 .65-3.59h2.81a.36.36 0 0 1 .44.43c-.02.85-.01 1.72-.01 2.58zm-2.21-2.19h-.79a1 1 0 0 0-.13 2 4.22 4.22 0 0 0 .93.09c1 0 1 0 1-1s.04-1.1-1.01-1.09zM654 440.67c-2.29.08-3.12-1.81-3-3.59a3.12 3.12 0 0 1 .85-2.09 3.07 3.07 0 0 1 3.19-.65 2.62 2.62 0 0 1 1.86 2.22 4.42 4.42 0 0 1 0 1.65 2.72 2.72 0 0 1-2.9 2.46zm1.83-3.25a3.82 3.82 0 0 0-.19-1.24 1.7 1.7 0 0 0-3.26 0 4 4 0 0 0 0 2.61 1.7 1.7 0 0 0 2.86.52 3 3 0 0 0 .59-1.9zm79.58.05v2.6a.34.34 0 0 1-.42.41c-.82 0-.69.12-.7-.71v-1.69a.3.3 0 0 0-.36-.36h-2.13a.33.33 0 0 0-.39.41v1.91a.36.36 0 0 1-.43.45c-.8 0-.74.06-.74-.74v-4.87c0-.33.08-.44.42-.43.79 0 .75-.11.75.77v1.37a.27.27 0 0 0 .32.32H734a.27.27 0 0 0 .31-.32v-1.84a.24.24 0 0 1 .29-.3c1 0 .82-.09.83.79s-.02 1.48-.02 2.23zm-72.13-.02v2.56a.36.36 0 0 1-.43.45c-.74 0-.74 0-.74-.74v-4c0-.32-.1-.46-.43-.44s-.72 0-1.08 0-.51 0-.51.5a18.93 18.93 0 0 1-.13 2.8 3.69 3.69 0 0 1-.23.9 1.68 1.68 0 0 1-1.85 1.06c-.42 0-.3-.35-.32-.6s.11-.3.33-.29a.83.83 0 0 0 .8-.51 3 3 0 0 0 .3-1.4v-2.85a.37.37 0 0 1 .46-.45h3.42a.33.33 0 0 1 .4.4c0 .86.01 1.73.01 2.61zm1.57-.03v-2.59c0-.28.06-.41.38-.4.78 0 .78 0 .78.79v1.19a.3.3 0 0 0 .36.36h1.73a1.77 1.77 0 0 1 1.69 2.54 1.62 1.62 0 0 1-1.59 1.09h-3c-.27 0-.31-.15-.31-.37-.04-.84-.04-1.72-.04-2.61zm2 .22h-.65c-.21 0-.25.09-.25.31v1.37a.3.3 0 0 0 .36.34h1.27a1.35 1.35 0 0 0 .66-.18 1 1 0 0 0 .45-1.12 1 1 0 0 0-.93-.69 7.81 7.81 0 0 0-.87-.03zm71.37.08a.47.47 0 0 0-.07.37v2a.3.3 0 0 1-.35.37c-.93 0-.76.13-.77-.74v-4.79c0-.48 0-.48.47-.49h.29a.29.29 0 0 1 .36.36v1.66a.62.62 0 0 0 0 .35.27.27 0 0 0 .23-.15c.57-.57 1.16-1.12 1.7-1.72a1.27 1.27 0 0 1 1.22-.5.59.59 0 0 1 .47.07c.08.19-.17.28-.29.4-.71.71-1.43 1.43-2.15 2.13-.2.2-.12.32 0 .48l2.43 2.61a.32.32 0 0 1 .18.28c-.05.13-.21.05-.32.07a1.48 1.48 0 0 1-1.53-.67c-.5-.66-1.1-1.24-1.66-1.85-.03-.08-.12-.16-.21-.24zm-38.61 2.74a.77.77 0 0 1-.87-.48c-.33-.53-.7-1-1.06-1.55s-.26-.36-.52 0-.75 1-1.08 1.57a.81.81 0 0 1-.89.44.7.7 0 0 1-.54-.07.55.55 0 0 1 .25-.51q.82-1.14 1.66-2.27a.41.41 0 0 0 0-.58c-.56-.75-1.12-1.51-1.67-2.26-.06-.08-.18-.16-.11-.28a.33.33 0 0 1 .27-.06 1.16 1.16 0 0 1 1.37.69 9.37 9.37 0 0 0 .75 1.1c.24.35.25.35.5 0s.64-.87.92-1.34a.76.76 0 0 1 .85-.44.73.73 0 0 1 .6.08.66.66 0 0 1-.3.53q-.73 1-1.48 2a.36.36 0 0 0 0 .51c.61.82 1.2 1.65 1.8 2.48.08.11.25.22.17.36a.43.43 0 0 1-.37.06h-.25zm-21.05-2.62c0-.74.09-1.49.1-2.23 0-.26 0-.37-.31-.36h-1.31c-.44 0-.4-.11-.4-.42a.33.33 0 0 1 .4-.4h4.51a.35.35 0 0 1 .41.43.33.33 0 0 1-.41.39h-1.3a.33.33 0 0 0-.4.4v4.29c0 .52-.1.53-.61.52s-.69.11-.69-.6v-2zm-30.21.03v2.2a.32.32 0 0 1-.38.38c-.74 0-.74 0-.74-.7v-4c0-.51 0-.51-.53-.51h-1.23c-.41 0-.34-.18-.34-.42s0-.4.33-.39h4.65c.3 0 .32.17.32.4s0 .43-.34.42-.91 0-1.37 0a.32.32 0 0 0-.39.4c.03.73.02 1.48.02 2.22zm36.44-3.43h2.27a.33.33 0 0 1 .39.41c0 .28-.07.44-.38.41h-.29a2.23 2.23 0 0 0-1.32.09 2 2 0 0 0-.1 1.35v3.28c0 .16.09.42-.15.46a1.33 1.33 0 0 1-.88 0 .38.38 0 0 1-.07-.37v-4.28c0-.48 0-.48-.48-.48h-1.22a.33.33 0 0 1-.39-.41c0-.28.07-.42.38-.41.73-.04 1.45-.05 2.24-.05z" transform="translate(-562 -382)"/><path d="M598.84 392.79c2.51 0 6.71 6.91 6.71 14.93S600.83 423 599.13 423s-4.71-5.11-4.7-15.73 2.57-14.48 4.41-14.48z" transform="translate(-562 -382)" fill="url(#linear-gradient-2)" fill-rule="evenodd"/></svg>