<svg id="Слой_1" data-name="Слой 1" xmlns="http://www.w3.org/2000/svg" width="16" height="16"><defs><style>.cls-1{fill:#666}</style></defs><path class="cls-1" d="M14 14h2v2h-2z"/><path class="cls-1" d="M13 13h2v2h-2z"/><path class="cls-1" d="M12 12h2v2h-2z"/><path class="cls-1" d="M11 11h2v2h-2z"/><path class="cls-1" d="M10 10h2v2h-2z"/><path class="cls-1" d="M9 9h2v2H9z"/><path class="cls-1" d="M641 395a6 6 0 1 0 6 6 6 6 0 0 0-6-6zm0 10a4 4 0 1 1 4-4 4 4 0 0 1-4 4z" transform="translate(-635 -395)"/></svg>